<svg width="48" height="48" viewBox="0 0 48 48" fill="none" xmlns="http://www.w3.org/2000/svg">
<path d="M24 0C37.2548 0 48 10.7452 48 24C48 37.2548 37.2548 48 24 48C10.7452 48 0 37.2548 0 24C0 10.7452 10.7452 0 24 0ZM19.2158 27.582C18.7294 27.5727 18.2535 27.7493 17.8896 28.0801L10.8311 34.4971L10.7178 34.6104C10.6103 34.728 10.5187 34.8609 10.4473 35.0039L10.3975 35.1123C9.94124 36.2011 10.7016 37.4242 11.8799 37.4971L11.999 37.501L36.8262 37.3877C37.7871 37.3833 38.5631 36.6006 38.5586 35.6396L38.5488 35.4619C38.4556 34.5851 37.7112 33.9041 36.8105 33.9082L36.0459 33.9111L33.3115 33.9238L28.5303 33.9453L24.0205 33.9668H24.0195L16.5947 34.0039L20.375 30.4502C20.8989 29.9576 21.0434 29.1817 20.7305 28.5342L20.6377 28.3682C20.536 28.2081 20.4065 28.0669 20.2559 27.9502L20.2383 27.9365L20.0527 27.8115C19.8603 27.6998 19.647 27.6264 19.4248 27.5977L19.2158 27.582ZM11.3115 9.61426C10.3451 9.61424 9.56064 10.3978 9.56055 11.3643L9.57031 11.543C9.65979 12.4255 10.4054 13.1142 11.3115 13.1143H14.9785L14.1367 19.8389C13.6956 19.867 13.2258 19.9749 12.7617 20.1719C11.2366 20.8193 10.3497 22.1688 10.7812 23.1855C11.2128 24.2022 12.7992 24.5017 14.3242 23.8545C15.8494 23.2071 16.7363 21.8576 16.3047 20.8408C16.2473 20.7057 16.1676 20.5848 16.0723 20.4756L16.9922 13.124L16.9141 13.1143H32.4033L25.8555 20.0723C25.3041 20.658 25.3125 21.5755 25.875 22.1504L26.0264 22.3037L26.5146 22.8027L24.9268 24.5225C24.5341 24.2657 24.0657 24.1153 23.5615 24.1152C22.1808 24.1152 21.0615 25.2345 21.0615 26.6152C21.0618 27.9957 22.181 29.1152 23.5615 29.1152C24.942 29.1151 26.0613 27.9957 26.0615 26.6152C26.0615 26.1006 25.9053 25.6222 25.6387 25.2246L27.5713 23.1328L31.5352 18.8369C31.535 18.8476 31.5353 18.8583 31.5352 18.8691C31.5307 19.3268 31.5257 19.9404 31.5225 20.5615C31.5193 21.1821 31.5187 21.8129 31.5225 22.3047C31.5243 22.55 31.5274 22.7641 31.5322 22.9258C31.5346 23.0059 31.5373 23.0774 31.541 23.1348C31.5424 23.1567 31.5456 23.1944 31.5508 23.2354V28.6807H31.6455C31.0502 29.2231 30.8254 30.0119 31.1475 30.7197C31.5925 31.697 32.6888 32.2367 33.8672 31.8145C35.0456 31.3921 35.8621 30.0212 35.417 29.0439C35.4032 29.0138 35.3855 28.9859 35.3701 28.957C35.3873 28.9047 35.403 28.8521 35.415 28.8008C35.4576 28.6184 35.489 28.3885 35.5137 28.1357C35.563 27.6298 35.5901 26.9666 35.6035 26.2549C35.6271 26.0875 35.6286 25.9264 35.6074 25.7725C35.6247 24.1358 35.5864 22.3092 35.5605 21.4004C35.5552 21.2133 35.5412 20.9709 35.4854 20.7334C35.4367 20.5268 35.3478 20.2868 35.1719 20.085L35.0908 20.001C34.9864 19.9028 34.857 19.7915 34.6973 19.665C34.2763 19.3319 33.8826 19.0261 33.5947 18.8037C33.4509 18.6926 33.3328 18.6027 33.251 18.54C33.2101 18.5087 33.178 18.4834 33.1562 18.4668C33.1496 18.4617 33.1443 18.4567 33.1396 18.4531L32.4678 17.8262L37.3066 12.585L37.3877 12.4912C37.4654 12.3941 37.5331 12.2891 37.5889 12.1777L37.6406 12.0664C38.1088 10.9522 37.3337 9.69804 36.1279 9.61816L36.0059 9.61523L11.3115 9.61426ZM34.2539 29.3574C34.3647 29.3562 34.4736 29.4075 34.542 29.4951C34.6236 29.5999 34.6675 29.7274 34.667 29.8555V29.8594C34.6668 29.9023 34.6609 29.9454 34.6494 29.9863L34.6064 30.1396C34.456 30.6753 34.0117 31.0756 33.4473 31.1846C33.1363 31.2445 32.8031 31.2042 32.5361 31.0205C32.1747 30.7718 31.7827 30.3959 32.2256 30.1416C32.82 29.8004 33.7602 29.484 34.0586 29.3877C34.1208 29.3676 34.1874 29.3582 34.2539 29.3574ZM32.5498 24.1777C32.9626 24.3497 33.4137 24.58 33.7939 24.8555C34.2799 25.2075 34.5449 25.5511 34.6074 25.8711C34.606 25.9878 34.6066 26.1038 34.6045 26.2178L34.5742 27.2178C34.5601 27.5252 34.5415 27.8027 34.5186 28.0381C34.5134 28.0912 34.5055 28.1412 34.5 28.1885C33.9361 27.9511 33.2249 27.938 32.5508 28.1611V24.4785L32.5498 24.1777ZM23.5615 25.2334C24.3283 25.2335 24.95 25.8553 24.9502 26.6221C24.95 27.3888 24.3283 28.0116 23.5615 28.0117C22.7946 28.0117 22.1731 27.3889 22.1729 26.6221C22.173 25.8552 22.7946 25.2334 23.5615 25.2334ZM32.5488 19.2617C32.5702 19.278 32.6021 19.303 32.6426 19.334C32.7235 19.396 32.8408 19.4845 32.9834 19.5947C33.2691 19.8155 33.6592 20.1192 34.0762 20.4492C34.2188 20.5621 34.326 20.655 34.4053 20.7295L34.4307 20.7598C34.4576 20.7974 34.4876 20.8605 34.5117 20.9629C34.5433 21.0975 34.5556 21.2561 34.5605 21.4287C34.5783 22.0521 34.6016 23.1025 34.6104 24.2227C34.5344 24.1603 34.4574 24.1004 34.3809 24.0449C33.7969 23.622 33.1001 23.3032 32.541 23.1025H32.542C32.5414 23.0963 32.54 23.0862 32.5391 23.0713C32.5364 23.0304 32.5345 22.9712 32.5322 22.8955C32.5277 22.7449 32.5233 22.5397 32.5215 22.2969C32.5178 21.8116 32.5193 21.1858 32.5225 20.5664C32.5249 20.102 32.5287 19.6418 32.5322 19.248C32.5368 19.2516 32.5422 19.2566 32.5488 19.2617Z" fill="#FFFF00"/>
</svg>
